<svg width="36" height="37" viewBox="0 0 36 37" fill="none" xmlns="http://www.w3.org/2000/svg">
<path fill-rule="evenodd" clip-rule="evenodd" d="M13.5945 12.4306C13.5945 11.2526 14.0625 10.1228 14.8955 9.28977C15.7285 8.45677 16.8583 7.98879 18.0363 7.98879C19.2144 7.98879 20.3442 8.45677 21.1772 9.28977C22.0102 10.1228 22.4781 11.2526 22.4781 12.4306H13.5945ZM10.6333 12.4306C10.6333 10.4672 11.4133 8.58421 12.8016 7.19588C14.1899 5.80755 16.0729 5.02759 18.0363 5.02759C19.9997 5.02759 21.8827 5.80755 23.271 7.19588C24.6594 8.58421 25.4393 10.4672 25.4393 12.4306H29.8811C30.0868 12.4306 30.2902 12.4734 30.4784 12.5564C30.6666 12.6393 30.8355 12.7606 30.9742 12.9124C31.113 13.0643 31.2186 13.2434 31.2843 13.4383C31.35 13.6332 31.3743 13.8396 31.3558 14.0445L30.1195 27.6393C30.019 28.7429 29.5097 29.7691 28.6914 30.5164C27.8732 31.2637 26.8051 31.6782 25.697 31.6784H10.3757C9.26753 31.6782 8.19948 31.2637 7.38122 30.5164C6.56296 29.7691 6.0536 28.7429 5.95313 27.6393L4.71682 14.0445C4.69831 13.8396 4.72268 13.6332 4.78838 13.4383C4.85408 13.2434 4.95966 13.0643 5.09841 12.9124C5.23715 12.7606 5.406 12.6393 5.5942 12.5564C5.7824 12.4734 5.98583 12.4306 6.1915 12.4306H10.6333Z" fill="white"/>
</svg>
