<svg width="163" height="135" viewBox="0 0 163 135" fill="none" xmlns="http://www.w3.org/2000/svg">
<g clip-path="url(#clip0_17_225)">
<path d="M124.259 80.4433C121.856 63.0435 119.675 45.6161 117.382 28.2052C116.358 20.4659 111.292 15.8366 103.486 15.5448C100.23 15.4182 96.9638 15.4953 93.7028 15.4788H93.4093C95.1589 18.3576 94.6052 22.0457 96.8143 24.8365C97.4842 25.6732 96.9139 26.9172 95.9783 27.6768C95.6229 27.9939 95.1792 28.1963 94.7056 28.2572C94.2321 28.3182 93.7511 28.2348 93.3263 28.0181C92.2688 27.5227 91.239 26.4273 91.7871 25.5135C93.9408 21.9521 91.5214 18.7815 91.2612 15.4457H90.9678C84.5011 15.4457 78.0123 15.8916 71.5457 15.2476C71.3519 15.4458 71.1581 15.6439 70.992 15.8421C70.5104 18.6659 68.3179 21.3741 70.2889 24.3631C71.0197 25.464 71.1083 26.4713 69.8792 27.0493C68.9103 27.4897 68.0245 28.8988 66.668 27.7814C66.1625 27.4116 65.818 26.8639 65.7048 26.2501C65.5916 25.6363 65.7183 25.0027 66.059 24.4787C67.7306 21.8735 68.4717 18.7848 68.1629 15.71C64.6361 15.71 61.0817 15.4182 57.5826 15.765C50.8447 16.4311 46.2826 21.1705 45.4023 27.875C44.7213 33.1043 44.0182 38.3336 43.3372 43.5464C41.5711 57.0765 39.6277 70.5902 38.1107 84.1478C37.0034 94.2211 44.9926 101.256 55.0082 99.478C59.4844 98.718 63.5184 96.3351 66.3303 92.7899C71.7672 86.135 71.7173 78.0268 66.1753 71.5369C63.7115 68.6526 60.971 66.0324 58.3688 63.2801C55.1909 59.8893 54.8476 57.4784 57.2117 55.1995C59.9246 52.5848 62.953 52.9977 65.9317 56.427C68.4176 59.2949 70.8481 62.2012 73.3174 65.0856C78.4331 71.036 83.1945 71.3223 88.8583 65.7792C92.0529 62.6471 94.9485 59.2343 98.0213 55.9756C100.186 53.6747 102.617 52.3591 105.435 54.8747C108.253 57.3903 107.134 60.0049 105.136 62.3609C102.068 65.9774 99.2005 69.8415 95.6627 72.9571C90.2425 77.724 90.6798 83.0469 93.1436 88.7661C96.6814 97.0725 106.564 101.674 115.118 99.1642C122.625 96.9183 125.615 90.4505 124.259 80.4433ZM81.0131 63.071C79.1619 63.0039 77.4093 62.225 76.1244 60.8983C74.8396 59.5716 74.123 57.8008 74.1257 55.9591C74.1922 54.0586 74.9906 52.2561 76.3559 50.9243C77.7213 49.5925 79.5491 48.8331 81.4616 48.8032C83.3823 48.793 85.2287 49.5406 86.5956 50.8821C87.9626 52.2237 88.7385 54.0495 88.7532 55.9591C88.7205 56.9332 88.4936 57.8912 88.0858 58.7775C87.6779 59.6639 87.0972 60.4609 86.3772 61.1224C85.6573 61.7839 84.8124 62.2968 83.8916 62.6313C82.9708 62.9658 81.9924 63.1152 81.0131 63.071Z" fill="#41A4FF"/>
<path d="M93.7028 15.4843H93.4094L91.2612 15.4402H90.9678C89.6224 11.1962 87.7068 7.26048 84.5011 4.07336C81.9986 1.60182 79.5183 1.72843 77.1985 4.29905C74.3361 7.44764 72.797 11.2733 71.5347 15.2421L71.5956 15.187L71.5457 15.2421C71.352 15.4402 71.1582 15.6384 70.9921 15.8366C70.5104 18.6604 68.318 21.3686 70.2889 24.3576C71.0198 25.4585 71.1083 26.4658 69.8792 27.0438C68.9103 27.4841 68.0245 28.8933 66.6681 27.7759C66.1625 27.4061 65.818 26.8584 65.7048 26.2446C65.5916 25.6308 65.7183 24.9972 66.0591 24.4732C67.7307 21.868 68.4718 18.7793 68.1629 15.7044C70.3775 12.9522 71.0087 9.39074 72.7859 6.39627C77.7688 -1.99264 83.7427 -2.14126 89.1629 6.04948C91.0896 9.01643 92.2356 12.3192 93.7028 15.4843Z" fill="#2E2B2A"/>
<path d="M91.2889 15.4292L93.4371 15.4733C95.1866 18.3521 94.633 22.0402 96.8476 24.831C97.5175 25.6677 96.9417 26.9117 96.006 27.6768C95.6506 27.9919 95.2075 28.1926 94.7352 28.2525C94.2628 28.3124 93.7832 28.2288 93.3596 28.0126C92.2966 27.5172 91.2613 26.4163 91.8149 25.508C93.9409 21.9356 91.5159 18.765 91.2889 15.4292Z" fill="#422B16"/>
</g>
<path d="M1.26846 111.95V109.898H15.5946V111.95H9.58808V129H7.275V111.95H1.26846ZM21.0554 129V114.674H23.182V116.838H23.3312C23.5924 116.129 24.0649 115.554 24.7489 115.112C25.4329 114.671 26.2039 114.45 27.062 114.45C27.2236 114.45 27.4257 114.453 27.6682 114.459C27.9107 114.466 28.0942 114.475 28.2185 114.487V116.726C28.1439 116.707 27.9729 116.679 27.7055 116.642C27.4444 116.598 27.1677 116.577 26.8754 116.577C26.179 116.577 25.5572 116.723 25.0101 117.015C24.4691 117.301 24.0401 117.699 23.7229 118.209C23.412 118.712 23.2566 119.288 23.2566 119.934V129H21.0554ZM40.0753 129.298C38.6949 129.298 37.5042 128.994 36.5031 128.384C35.5082 127.769 34.7403 126.911 34.1993 125.81C33.6646 124.703 33.3972 123.416 33.3972 121.949C33.3972 120.481 33.6646 119.188 34.1993 118.069C34.7403 116.943 35.4926 116.067 36.4564 115.439C37.4264 114.804 38.5581 114.487 39.8514 114.487C40.5976 114.487 41.3344 114.612 42.0619 114.86C42.7894 115.109 43.4516 115.513 44.0485 116.073C44.6455 116.626 45.1211 117.36 45.4756 118.274C45.83 119.188 46.0072 120.314 46.0072 121.65V122.583H34.9641V120.68H43.7687C43.7687 119.872 43.6071 119.151 43.2837 118.517C42.9666 117.882 42.5127 117.382 41.922 117.015C41.3375 116.648 40.6473 116.465 39.8514 116.465C38.9747 116.465 38.2161 116.682 37.5757 117.117C36.9414 117.547 36.4533 118.106 36.1113 118.796C35.7693 119.487 35.5984 120.226 35.5984 121.016V122.285C35.5984 123.367 35.7849 124.284 36.158 125.036C36.5373 125.782 37.0627 126.351 37.7342 126.743C38.4058 127.128 39.1861 127.321 40.0753 127.321C40.6535 127.321 41.1759 127.24 41.6422 127.079C42.1148 126.911 42.522 126.662 42.864 126.332C43.206 125.997 43.4703 125.58 43.6568 125.083L45.7834 125.68C45.5595 126.401 45.1833 127.035 44.6548 127.582C44.1263 128.123 43.4734 128.546 42.6961 128.851C41.9189 129.149 41.0453 129.298 40.0753 129.298ZM55.2338 120.382V129H53.0326V114.674H55.1592V116.912H55.3457C55.6815 116.185 56.1913 115.6 56.8753 115.159C57.5593 114.711 58.4422 114.487 59.5242 114.487C60.4942 114.487 61.3429 114.686 62.0704 115.084C62.7979 115.476 63.3637 116.073 63.7679 116.875C64.1721 117.671 64.3742 118.678 64.3742 119.897V129H62.173V120.046C62.173 118.921 61.8808 118.044 61.2963 117.416C60.7118 116.782 59.9097 116.465 58.8899 116.465C58.1873 116.465 57.5593 116.617 57.0059 116.922C56.4587 117.226 56.0266 117.671 55.7094 118.255C55.3923 118.84 55.2338 119.549 55.2338 120.382ZM77.4831 129.298C76.2892 129.298 75.2353 128.997 74.3212 128.394C73.4072 127.784 72.6921 126.926 72.176 125.82C71.6599 124.707 71.4019 123.391 71.4019 121.874C71.4019 120.369 71.6599 119.064 72.176 117.957C72.6921 116.85 73.4103 115.995 74.3306 115.392C75.2508 114.789 76.3141 114.487 77.5204 114.487C78.4531 114.487 79.1899 114.643 79.7308 114.954C80.278 115.258 80.6946 115.607 80.9807 115.998C81.2729 116.384 81.4999 116.701 81.6615 116.95H81.8481V109.898H84.0492V129H81.9227V126.799H81.6615C81.4999 127.06 81.2698 127.39 80.9713 127.787C80.6729 128.179 80.2469 128.531 79.6935 128.841C79.1401 129.146 78.4033 129.298 77.4831 129.298ZM77.7815 127.321C78.6645 127.321 79.4106 127.091 80.02 126.631C80.6293 126.165 81.0926 125.521 81.4097 124.7C81.7268 123.873 81.8854 122.919 81.8854 121.837C81.8854 120.767 81.7299 119.832 81.419 119.03C81.1081 118.221 80.648 117.593 80.0386 117.145C79.4293 116.692 78.6769 116.465 77.7815 116.465C76.8488 116.465 76.0716 116.704 75.4498 117.183C74.8342 117.655 74.371 118.299 74.0601 119.113C73.7554 119.922 73.6031 120.83 73.6031 121.837C73.6031 122.857 73.7585 123.783 74.0694 124.616C74.3865 125.443 74.8529 126.102 75.4684 126.594C76.0902 127.079 76.8613 127.321 77.7815 127.321ZM93.481 134.372C93.1079 134.372 92.7752 134.341 92.483 134.279C92.1907 134.223 91.9887 134.167 91.8767 134.111L92.4364 132.171C92.9711 132.308 93.4437 132.358 93.854 132.32C94.2644 132.283 94.6282 132.1 94.9453 131.77C95.2686 131.447 95.564 130.921 95.8314 130.194L96.2417 129.075L90.944 114.674H93.3317L97.2864 126.09H97.4356L101.39 114.674H103.778L97.6967 131.089C97.4231 131.829 97.0843 132.442 96.6801 132.927C96.2759 133.418 95.8065 133.782 95.2717 134.018C94.7432 134.254 94.1463 134.372 93.481 134.372ZM110.659 129V109.898H117.337C118.667 109.898 119.765 110.129 120.629 110.589C121.494 111.043 122.137 111.655 122.56 112.426C122.983 113.191 123.194 114.04 123.194 114.972C123.194 115.793 123.048 116.471 122.756 117.006C122.47 117.54 122.09 117.963 121.618 118.274C121.152 118.585 120.645 118.815 120.098 118.964V119.151C120.682 119.188 121.27 119.393 121.86 119.766C122.451 120.139 122.945 120.674 123.343 121.371C123.741 122.067 123.94 122.919 123.94 123.926C123.94 124.884 123.723 125.745 123.287 126.51C122.852 127.275 122.165 127.881 121.226 128.328C120.287 128.776 119.065 129 117.561 129H110.659ZM112.972 126.948H117.561C119.072 126.948 120.144 126.656 120.778 126.071C121.419 125.481 121.739 124.766 121.739 123.926C121.739 123.279 121.574 122.683 121.245 122.135C120.915 121.582 120.446 121.141 119.836 120.811C119.227 120.475 118.506 120.307 117.673 120.307H112.972V126.948ZM112.972 118.293H117.262C117.959 118.293 118.587 118.156 119.146 117.882C119.712 117.609 120.16 117.223 120.489 116.726C120.825 116.228 120.993 115.644 120.993 114.972C120.993 114.133 120.701 113.421 120.116 112.836C119.532 112.246 118.605 111.95 117.337 111.95H112.972V118.293ZM140.148 123.143V114.674H142.349V129H140.148V126.575H139.999C139.663 127.302 139.141 127.921 138.432 128.431C137.723 128.935 136.828 129.187 135.746 129.187C134.85 129.187 134.054 128.991 133.358 128.599C132.662 128.201 132.114 127.604 131.717 126.808C131.319 126.006 131.12 124.996 131.12 123.777V114.674H133.321V123.628C133.321 124.672 133.613 125.506 134.197 126.127C134.788 126.749 135.541 127.06 136.455 127.06C137.002 127.06 137.558 126.92 138.124 126.64C138.696 126.36 139.175 125.931 139.56 125.353C139.952 124.775 140.148 124.038 140.148 123.143ZM151.476 134.372C151.102 134.372 150.77 134.341 150.478 134.279C150.185 134.223 149.983 134.167 149.871 134.111L150.431 132.171C150.966 132.308 151.438 132.358 151.849 132.32C152.259 132.283 152.623 132.1 152.94 131.77C153.263 131.447 153.559 130.921 153.826 130.194L154.236 129.075L148.939 114.674H151.326L155.281 126.09H155.43L159.385 114.674H161.772L155.691 131.089C155.418 131.829 155.079 132.442 154.675 132.927C154.27 133.418 153.801 133.782 153.266 134.018C152.738 134.254 152.141 134.372 151.476 134.372Z" fill="black"/>
<defs>
<clipPath id="clip0_17_225">
<rect width="86.5854" height="99.8137" fill="white" transform="translate(38)"/>
</clipPath>
</defs>
</svg>
