<svg width="72" height="83" viewBox="0 0 72 83" fill="none" xmlns="http://www.w3.org/2000/svg">
<g id="logo 1" clip-path="url(#clip0_5_44)">
<path id="Vector" d="M71.7284 66.8925C69.7303 52.4237 67.9164 37.932 66.0104 23.454C65.1587 17.0184 60.9461 13.1689 54.4546 12.9263C51.7476 12.821 49.0313 12.8851 46.3196 12.8713H46.0756C47.5304 15.2653 47.07 18.332 48.907 20.6527C49.4641 21.3485 48.9898 22.3829 48.2118 23.0146C47.9163 23.2783 47.5473 23.4466 47.1535 23.4973C46.7598 23.5479 46.3598 23.4786 46.0065 23.2984C45.1272 22.8864 44.2709 21.9756 44.7267 21.2157C46.5176 18.2542 44.5057 15.6177 44.2893 12.8439H44.0453C38.668 12.8439 33.2722 13.2146 27.8949 12.6791C27.7338 12.8439 27.5726 13.0087 27.4345 13.1734C27.034 15.5216 25.2108 17.7736 26.8498 20.2591C27.4575 21.1745 27.5312 22.0122 26.5091 22.4928C25.7034 22.859 24.9668 24.0308 23.8389 23.1016C23.4185 22.7941 23.132 22.3386 23.0379 21.8282C22.9438 21.3179 23.0491 20.791 23.3324 20.3552C24.7225 18.1889 25.3387 15.6205 25.0819 13.0636C22.1493 13.0636 19.1936 12.821 16.2839 13.1094C10.681 13.6632 6.88741 17.6043 6.15539 23.1794C5.58912 27.5278 5.00443 31.8763 4.43815 36.2109C2.96951 47.4619 1.35355 58.6992 0.0920912 69.973C-0.828684 78.3495 5.81471 84.1992 14.1431 82.7208C17.8654 82.0888 21.2198 80.1074 23.558 77.1594C28.0791 71.6254 28.0376 64.8831 23.4291 59.4865C21.3804 57.088 19.1015 54.9092 16.9377 52.6205C14.295 49.8009 14.0096 47.7961 15.9755 45.9011C18.2314 43.7269 20.7497 44.0702 23.2266 46.9218C25.2937 49.3066 27.3148 51.7234 29.3681 54.1219C33.6221 59.0699 37.5814 59.3079 42.2912 54.6986C44.9476 52.0941 47.3555 49.2562 49.9106 46.5465C51.7107 44.6332 53.7318 43.5392 56.0752 45.631C58.4186 47.7228 57.4886 49.897 55.8266 51.8561C53.2761 54.8634 50.8912 58.0767 47.9494 60.6674C43.4422 64.6313 43.8059 69.0576 45.8546 73.8134C48.7965 80.7205 57.0144 84.5471 64.1274 82.4599C70.3702 80.5923 72.8563 75.214 71.7284 66.8925ZM35.7675 52.4466C34.2282 52.3908 32.7707 51.7431 31.7023 50.6399C30.634 49.5367 30.0381 48.0642 30.0403 46.5327C30.0956 44.9524 30.7595 43.4535 31.8949 42.346C33.0302 41.2386 34.5501 40.6071 36.1404 40.5823C37.7376 40.5737 39.273 41.1954 40.4097 42.311C41.5464 43.4265 42.1916 44.9448 42.2037 46.5327C42.1766 47.3428 41.9879 48.1394 41.6488 48.8764C41.3096 49.6134 40.8267 50.2762 40.2281 50.8263C39.6294 51.3764 38.9268 51.8028 38.1612 52.081C37.3955 52.3591 36.5819 52.4834 35.7675 52.4466Z" fill="#41A4FF"/>
<path id="Vector_2" d="M46.3196 12.8759H46.0756L44.2893 12.8393H44.0453C42.9265 9.31021 41.3336 6.03744 38.6679 3.38719C36.587 1.33199 34.5244 1.43727 32.5954 3.57486C30.2152 6.19307 28.9353 9.37429 27.8857 12.6745L27.9363 12.6287L27.8949 12.6745C27.7337 12.8393 27.5726 13.0041 27.4345 13.1689C27.0339 15.517 25.2108 17.769 26.8498 20.2545C27.4575 21.17 27.5312 22.0076 26.5091 22.4882C25.7034 22.8544 24.9668 24.0262 23.8389 23.097C23.4185 22.7895 23.132 22.334 23.0379 21.8237C22.9438 21.3133 23.0491 20.7864 23.3324 20.3506C24.7225 18.1843 25.3387 15.6159 25.0819 13.059C26.9235 10.7704 27.4483 7.80885 28.9261 5.31881C33.0696 -1.65698 38.0372 -1.78057 42.5444 5.03044C44.1465 7.49759 45.0995 10.244 46.3196 12.8759Z" fill="#2E2B2A"/>
<path id="Vector_3" d="M44.3123 12.8301L46.0986 12.8668C47.5534 15.2607 47.093 18.3275 48.9346 20.6482C49.4916 21.3439 49.0128 22.3784 48.2348 23.0146C47.9392 23.2766 47.5708 23.4435 47.178 23.4933C46.7852 23.5431 46.3864 23.4736 46.0341 23.2938C45.1502 22.8819 44.2893 21.9664 44.7497 21.2112C46.5175 18.2405 44.501 15.604 44.3123 12.8301Z" fill="#422B16"/>
</g>
<defs>
<clipPath id="clip0_5_44">
<rect width="72" height="83" fill="white"/>
</clipPath>
</defs>
</svg>
